<svg xmlns="http://www.w3.org/2000/svg" fill="none" viewBox="0 0 136 136">
  <path fill="url(#a)" d="M46 98h6c3 0 3.3-.5 4.5-2.5l13.5-23s3-5-2-5h-4L49 42.2c-2-3-4-3-6 0L29.5 65c-1 2-1 3 0 5L46 98Z"/>
  <path fill="url(#b)" fill-opacity=".7" d="M46 98h6c3 0 3.3-.5 4.5-2.5l13.5-23s3-5-2-5h-4L49 42.2c-2-3-4-3-6 0L29.5 65c-1 2-1 3 0 5L46 98Z"/>
  <path fill="url(#c)" fill-opacity=".7" d="M46 98h6c3 0 3.3-.5 4.5-2.5l13.5-23s3-5-2-5h-4L49 42.2c-2-3-4-3-6 0L29.5 65c-1 2-1 3 0 5L46 98Z"/>
  <path fill="url(#d)" d="M74.4 95.6C73.3 97.6 73 98 70 98h-6l-4.5-7.6L70 72.5s1.6-2.6.6-4L58 47.2l3-5c2-3 4-3 6 0l15 25.2h4c5 0 2 5 2 5l-13.5 23Z"/>
  <path fill="url(#e)" fill-opacity=".7" d="M74.4 95.6C73.3 97.6 73 98 70 98h-6l-4.5-7.6L70 72.5s1.6-2.6.6-4L58 47.2l3-5c2-3 4-3 6 0l15 25.2h4c5 0 2 5 2 5l-13.5 23Z"/>
  <path fill="url(#f)" fill-opacity=".7" d="M74.4 95.6C73.3 97.6 73 98 70 98h-6l-4.5-7.6L70 72.5s1.6-2.6.6-4L58 47.2l3-5c2-3 4-3 6 0l15 25.2h4c5 0 2 5 2 5l-13.5 23Z"/>
  <path fill="url(#g)" d="M74.4 95.6C73.3 97.6 73 98 70 98h-6l-4.5-7.6L70 72.5s1.6-2.6.6-4L58 47.2l3-5c2-3 4-3 6 0l15 25.2h4c5 0 2 5 2 5l-13.5 23Z"/>
  <path fill="url(#h)" d="M92.4 95.6C91.3 97.6 91 98 88 98h-6l-4.5-7.6L88 72.5s1.6-2.6.6-4L76 47.2l3-5c2-3 4-3 6 0l15 25.2h4c5 0 2 5 2 5l-13.5 23Z"/>
  <path fill="url(#i)" fill-opacity=".7" d="M92.4 95.6C91.3 97.6 91 98 88 98h-6l-4.5-7.6L88 72.5s1.6-2.6.6-4L76 47.2l3-5c2-3 4-3 6 0l15 25.2h4c5 0 2 5 2 5l-13.5 23Z"/>
  <path fill="url(#j)" fill-opacity=".7" d="M92.4 95.6C91.3 97.6 91 98 88 98h-6l-4.5-7.6L88 72.5s1.6-2.6.6-4L76 47.2l3-5c2-3 4-3 6 0l15 25.2h4c5 0 2 5 2 5l-13.5 23Z"/>
  <path fill="url(#k)" d="M92.4 95.6C91.3 97.6 91 98 88 98h-6l-4.5-7.6L88 72.5s1.6-2.6.6-4L76 47.2l3-5c2-3 4-3 6 0l15 25.2h4c5 0 2 5 2 5l-13.5 23Z"/>
  <defs>
    <linearGradient id="a" x1="43.5" x2="64.8" y1="42" y2="78" gradientUnits="userSpaceOnUse">
      <stop offset=".1" stop-color="#CB0083"/>
      <stop offset="1" stop-color="#FF1F93"/>
    </linearGradient>
    <linearGradient id="b" x1="47.5" x2="35.2" y1="56" y2="47.3" gradientUnits="userSpaceOnUse">
      <stop offset=".3" stop-color="#D448FF" stop-opacity="0"/>
      <stop offset="1" stop-color="#BA12ED"/>
    </linearGradient>
    <linearGradient id="c" x1="22.5" x2="136.8" y1="36.5" y2="124.3" gradientUnits="userSpaceOnUse">
      <stop stop-color="#FFFFED"/>
      <stop offset=".3" stop-color="white" stop-opacity="0"/>
    </linearGradient>
    <linearGradient id="d" x1="62.1" x2="86.3" y1="58" y2="89.2" gradientUnits="userSpaceOnUse">
      <stop offset="0" stop-color="#CB0083"/>
      <stop offset="1" stop-color="#FF1F93"/>
    </linearGradient>
    <linearGradient id="e" x1="64.5" x2="56" y1="51.5" y2="47.6" gradientUnits="userSpaceOnUse">
      <stop offset=".3" stop-color="#D448FF" stop-opacity="0"/>
      <stop offset="1" stop-color="#BA12ED"/>
    </linearGradient>
    <linearGradient id="f" x1="15" x2="74" y1="41.5" y2="85" gradientUnits="userSpaceOnUse">
      <stop offset=".3" stop-color="#EFFFFD"/>
      <stop offset="1" stop-color="white" stop-opacity="0"/>
    </linearGradient>
    <linearGradient id="h" x1="80.1" x2="104.3" y1="58" y2="89.2" gradientUnits="userSpaceOnUse">
      <stop offset="0" stop-color="#CB0083"/>
      <stop offset="1" stop-color="#FF1F93"/>
    </linearGradient>
    <linearGradient id="i" x1="82.5" x2="74" y1="51.5" y2="47.6" gradientUnits="userSpaceOnUse">
      <stop offset=".3" stop-color="#D448FF" stop-opacity="0"/>
      <stop offset="1" stop-color="#BA12ED"/>
    </linearGradient>
    <linearGradient id="j" x1="33" x2="92" y1="41.5" y2="85" gradientUnits="userSpaceOnUse">
      <stop offset=".3" stop-color="#FFFFED"/>
      <stop offset="1" stop-color="white" stop-opacity="0"/>
    </linearGradient>
    <radialGradient id="g" cx="0" cy="0" r="1" gradientTransform="rotate(-57.6 101.4 6) scale(66.3042 26.7509)" gradientUnits="userSpaceOnUse">
      <stop offset=".1"/>
      <stop offset="1" stop-opacity="0"/>
    </radialGradient>
    <radialGradient id="k" cx="0" cy="0" r="1" gradientTransform="rotate(-57.6 110.4 -10.3) scale(66.3042 26.7509)" gradientUnits="userSpaceOnUse">
      <stop offset=".1"/>
      <stop offset="1" stop-opacity="0"/>
    </radialGradient>
  </defs>
</svg>
