<svg xmlns="http://www.w3.org/2000/svg" fill="none" viewBox="0 0 393 53">
  <path fill="#EFFFFD" d="M0 52.1h10.2v-22c0-4.8 3-8.4 7-8.4 3.4 0 5.5 1.8 5.5 6.5v24H33V30c0-4.7 2.9-8.3 6.9-8.3 3.4 0 5.6 1.8 5.6 6.5v24h10.1V26.4c0-9.3-4.7-13.2-11.9-13.2-5.1 0-9.2 2.5-11.7 6.1h-.5c-2-4.2-5.6-6-10.4-6-5 0-9 2.4-11.4 6h-.5l-.8-5.2H0v38ZM74.8 53c6 0 9.9-2 12.5-5.1h.5c.8 3 3.8 5 8 5 3 0 5-.6 6-1.1v-6.6h-2.3c-1.4 0-2.5-1-2.5-2.6V25.5c0-8-6-12.2-16.4-12.2-10 0-16.5 4.3-16.5 10.9v1.4h10v-.8c0-2.1 1.8-4 6.5-4 4.8 0 6.2 2.2 6.2 5.5V29c-14.6 0-24.4 2.7-24.4 13.2 0 8.9 7.2 10.7 12.4 10.7Zm3.4-7.6c-3.3 0-5.4-1.5-5.4-4.2 0-4.5 5.9-6 14-6v2.2c0 4.7-3.3 8-8.6 8ZM119.1 53a15 15 0 0 0 12.5-6.1h.5l.7 5.2h8.4v-38H131v22.2c0 4.7-3.4 8.3-7.9 8.3-4 0-6.3-1.9-6.3-6.7V14.2h-10.3v25.3c0 9.5 5 13.5 12.6 13.5ZM165.9 53c9.8 0 17.5-3.2 17.5-12.5 0-9.6-9.4-10.3-16.4-12.1-4.2-1.2-7.6-1.8-7.6-4.3 0-2.2 2.7-3.4 6.5-3.4 4 0 6.6 1.6 6.6 4v.6h9.7l.1-1.4c0-6.7-7.1-10.5-16-10.5-9.5 0-16.9 3.6-16.9 11.7 0 8 7.4 9.9 13.9 11.5 5.2 1.3 10 2 10 5.3 0 2.9-3.9 3.8-7.2 3.8-4 0-7.6-1.3-7.7-5V40h-9.8v1.1c0 7.2 6.8 11.9 17.3 11.9ZM198.2 52.1h10.5l4.2-16.7a83 83 0 0 0 2-9.3h.4a163 163 0 0 0 2 9.3l4.2 16.7H232l11.9-38h-9.8l-4.7 18.5a162 162 0 0 0-1.7 8h-.5l-1.8-8.1-4.6-18.3h-10.7l-4.4 18.2-1.8 8.1h-.5c-.3-1.1-1-5-1.8-8L197 14.2h-10.7l12 38ZM266.3 53c12.6 0 19.4-6.3 19.4-19.8s-6.8-19.9-19.4-19.9c-12.5 0-19.5 6.4-19.5 19.9 0 13.5 7 19.8 19.5 19.8Zm0-7.8c-6.5 0-9-3.8-9-11.1v-1.8c0-7.3 2.5-11.1 9-11.1 6.4 0 9 3.8 9 11v1.9c0 7.3-2.6 11-9 11ZM293.1 52.1h10.2V33.3c0-6.7 3-10 9-10h3.2V14c-.7-.2-2.2-.7-3.8-.7-4.7 0-7.4 3-8.9 6.9h-.5l-.8-6h-8.4v38ZM320.7 52.1H331V41.6l5.5-5.3L345 52h11.6l-13.6-23 13-15h-12L331 30V0h-10.2v52.1ZM375.5 53c9.8 0 17.5-3.2 17.5-12.5 0-9.6-9.4-10.3-16.4-12.1-4.2-1.2-7.6-1.8-7.6-4.3 0-2.2 2.7-3.4 6.5-3.4 4 0 6.6 1.6 6.6 4v.6h9.7l.1-1.4c0-6.7-7.1-10.5-16-10.5-9.4 0-16.9 3.6-16.9 11.7 0 8 7.4 9.9 13.9 11.5 5.2 1.3 10 2 10 5.3 0 2.9-3.9 3.8-7.2 3.8-4 0-7.6-1.3-7.7-5V40h-9.8v1.1c0 7.2 6.8 11.9 17.3 11.9Z"/>
</svg>
